<?xml version="1.0" standalone="no"?>
<!DOCTYPE svg PUBLIC "-//W3C//DTD SVG 20010904//EN"
 "http://www.w3.org/TR/2001/REC-SVG-20010904/DTD/svg10.dtd">
<svg version="1.0" xmlns="http://www.w3.org/2000/svg"
 width="619.000000pt" height="403.000000pt" viewBox="0 0 619.000000 403.000000"
 preserveAspectRatio="xMidYMid meet">

<g transform="translate(0.000000,403.000000) scale(0.100000,-0.100000)"
fill="#005b96" stroke="none">
<path d="M2055 3314 c-46 -25 -94 -74 -126 -129 -30 -53 -40 -55 -13 -3 9 16
34 50 56 74 22 24 36 44 31 44 -14 0 -69 -61 -89 -100 -9 -19 -18 -48 -20 -65
-1 -16 -7 -57 -12 -90 -11 -67 0 -160 23 -205 33 -65 104 -116 178 -128 l42
-8 11 -119 c14 -143 25 -192 65 -295 75 -196 237 -365 443 -461 59 -28 65 -33
55 -50 -17 -32 -7 -72 21 -86 16 -8 72 -13 163 -13 l137 0 0 25 c0 14 -6 25
-13 25 -8 0 -24 11 -36 24 -18 19 -22 33 -19 65 3 40 3 41 -32 46 -227 35
-430 146 -560 308 -97 119 -173 311 -187 470 -6 67 -6 67 19 67 69 0 158 67
194 145 64 136 0 358 -127 442 -52 35 -156 43 -204 17z m303 -431 c-47 -92
-175 -136 -295 -102 -51 14 -143 94 -143 124 0 9 15 -1 38 -27 20 -22 55 -49
77 -59 45 -21 139 -25 198 -8 44 12 102 59 123 101 9 17 18 27 21 24 3 -3 -5
-27 -19 -53z"/>
<path d="M3856 3238 c-12 -17 -16 -50 -16 -145 0 -97 -3 -125 -16 -137 -18
-18 -23 -19 -44 -6 -12 7 -16 39 -20 146 -3 91 -9 139 -17 141 -6 2 -22 -11
-36 -29 -68 -92 -89 -256 -43 -353 36 -78 125 -145 194 -145 25 0 25 0 19 -67
-22 -253 -161 -495 -363 -634 -95 -65 -250 -123 -384 -144 -35 -5 -35 -6 -32
-46 3 -32 -1 -46 -19 -65 -12 -13 -29 -24 -36 -24 -9 0 -13 -8 -11 -22 3 -22
7 -23 123 -26 147 -4 180 2 201 33 14 22 14 27 1 54 l-15 30 65 31 c204 95
367 264 442 459 36 94 58 197 67 319 4 54 12 95 18 97 6 2 32 9 58 15 123 32
201 171 178 317 -16 97 -85 223 -109 197 -5 -5 -11 -60 -14 -122 -3 -63 -8
-116 -11 -119 -3 -4 -6 6 -6 20 0 15 -4 27 -9 27 -5 0 -16 3 -25 6 -11 4 -16
-4 -19 -38 -2 -23 -4 14 -5 85 -2 112 -4 129 -22 147 -27 27 -75 26 -94 -2z
m-121 -374 c44 -46 92 -64 170 -64 83 0 125 17 178 71 57 59 63 40 7 -24 -52
-59 -115 -81 -211 -75 -106 8 -181 63 -203 148 -6 23 -6 24 6 5 7 -11 31 -39
53 -61z"/>
<path d="M3812 2998 c-15 -15 -16 -38 -2 -38 12 0 23 25 18 40 -2 7 -7 7 -16
-2z"/>
<path d="M3011 2888 c-6 -18 -52 -85 -101 -148 -94 -118 -133 -187 -145 -255
-10 -54 -12 -56 -42 -44 -14 5 -80 21 -147 35 -144 31 -236 70 -294 127 l-44
42 7 -55 c42 -339 246 -573 565 -650 103 -24 309 -27 412 -5 318 67 551 322
584 640 l7 70 -40 -41 c-57 -58 -131 -90 -301 -129 -81 -18 -153 -35 -161 -37
-10 -2 -17 10 -22 40 -13 71 -51 141 -134 245 -43 55 -90 121 -105 149 l-28
50 -11 -34z m4 -270 c-4 -106 -9 -196 -12 -200 -6 -11 -132 134 -133 151 0 8
27 54 60 102 33 48 64 99 70 113 5 14 12 26 16 26 3 0 3 -87 -1 -192z m135 3
c1 -10 -74 -151 -80 -151 -3 0 -6 65 -6 144 l-2 144 44 -65 c24 -36 44 -68 44
-72z m-801 -89 c22 -16 59 -36 83 -45 40 -16 49 -25 87 -98 32 -60 39 -78 25
-71 -29 17 -147 122 -185 167 -73 84 -75 94 -10 47z m1401 24 c0 -26 -250
-265 -250 -239 0 4 17 41 37 80 33 63 44 75 79 89 23 9 61 29 85 45 46 30 49
32 49 25z m-1152 -121 c34 -10 66 -23 71 -29 10 -14 82 -208 78 -212 -2 -2
-27 11 -57 29 -46 27 -60 44 -87 96 -17 35 -45 78 -62 95 -33 34 -40 52 -18
43 7 -3 41 -13 75 -22z m917 -16 c-20 -23 -50 -68 -65 -101 -24 -51 -38 -66
-86 -95 -31 -18 -58 -32 -60 -31 -4 5 74 210 85 221 7 7 128 43 155 46 4 1 -8
-17 -29 -40z m-697 -79 c84 -63 130 -154 147 -288 l7 -54 -82 82 c-76 74 -85
88 -115 169 -18 48 -40 101 -49 118 l-16 31 31 -11 c16 -7 51 -28 77 -47z
m502 14 c-11 -21 -34 -77 -51 -124 -26 -75 -36 -90 -79 -124 -27 -21 -60 -54
-72 -72 -13 -19 -26 -34 -29 -34 -11 0 2 92 22 162 25 88 83 160 164 204 32
18 61 32 62 30 2 -1 -6 -20 -17 -42z"/>
<path d="M3007 1843 c-20 -5 -18 -24 3 -31 7 -3 10 0 6 6 -11 18 15 25 31 9
25 -25 9 -51 -28 -43 -18 3 -28 2 -24 -4 9 -14 49 -12 63 2 16 16 15 33 -4 52
-16 17 -17 17 -47 9z"/>
<path d="M638 1495 c4 -32 7 -35 38 -35 32 0 34 2 34 35 0 34 -1 35 -38 35
-38 0 -38 0 -34 -35z"/>
<path d="M5340 1511 c0 -34 12 -51 35 -51 29 0 39 14 31 46 -5 19 -13 24 -36
24 -23 0 -30 -5 -30 -19z"/>
<path d="M700 1170 l0 -210 35 0 35 0 0 90 0 90 50 0 50 0 0 -91 0 -90 33 3
32 3 3 155 c2 85 0 179 -3 208 -6 49 -8 52 -35 52 l-29 0 -3 -82 -3 -83 -47
-3 -48 -3 0 85 0 86 -35 0 -35 0 0 -210z"/>
<path d="M1150 1170 l0 -211 98 3 97 3 0 30 c0 30 0 30 -62 33 l-63 3 0 54 0
54 63 3 c62 3 62 3 62 33 0 30 0 30 -62 33 l-63 3 0 49 0 49 63 3 c62 3 62 3
62 33 l0 30 -97 3 -98 3 0 -211z"/>
<path d="M1615 1368 c-6 -14 -75 -385 -75 -399 0 -5 14 -9 30 -9 23 0 33 6 40
25 8 21 16 25 50 25 34 0 41 -4 46 -25 5 -19 13 -25 35 -25 20 0 29 5 29 16 0
19 -59 361 -66 387 -6 21 -82 25 -89 5z m59 -190 c4 -29 9 -68 12 -85 6 -31 5
-33 -25 -33 -25 0 -31 4 -31 21 0 40 23 158 30 154 4 -3 10 -28 14 -57z"/>
<path d="M1980 1170 l0 -211 98 3 97 3 0 30 c0 30 0 30 -62 33 l-63 3 -2 172
-3 172 -32 3 -33 3 0 -211z"/>
<path d="M2294 1356 c-9 -36 2 -46 47 -46 l39 0 0 -175 0 -175 30 0 30 0 2
173 3 172 40 5 c37 5 40 8 40 35 l0 30 -112 3 c-112 3 -112 3 -119 -22z"/>
<path d="M2720 1170 l0 -210 35 0 35 0 0 91 0 90 48 -3 47 -3 3 -87 3 -88 34
0 35 0 0 179 c0 223 -3 241 -41 241 l-28 0 -3 -82 -3 -83 -47 -3 -48 -3 0 85
0 86 -35 0 -35 0 0 -210z"/>
<path d="M3150 1373 c0 -5 16 -56 35 -113 19 -58 35 -124 35 -149 0 -26 3 -70
7 -99 6 -52 6 -53 37 -50 l31 3 1 90 c0 76 6 107 37 199 20 60 37 113 37 118
0 5 -14 8 -32 6 -29 -3 -32 -7 -47 -63 -30 -108 -31 -108 -55 -20 -21 77 -23
80 -54 83 -18 2 -32 -1 -32 -5z"/>
<path d="M3824 1367 c-2 -7 -3 -100 -2 -207 l3 -195 33 -3 32 -3 0 90 0 91 65
0 65 0 0 35 0 35 -65 0 -65 0 0 50 0 50 65 0 65 0 0 35 0 35 -95 0 c-69 0 -97
-4 -101 -13z"/>
<path d="M4255 1358 c-14 -64 -65 -358 -65 -377 0 -17 6 -21 29 -21 23 0 30 6
35 26 6 23 11 25 49 22 35 -2 43 -7 45 -25 3 -19 10 -23 38 -23 19 0 34 1 34
3 0 15 -72 402 -76 408 -3 5 -23 9 -44 9 -33 0 -40 -4 -45 -22z m69 -231 l8
-67 -31 0 c-35 0 -35 -1 -20 89 19 118 29 113 43 -22z"/>
<path d="M4628 1279 c-2 -56 -2 -151 0 -211 l3 -108 30 0 29 0 0 90 0 90 33 0
c52 0 67 -24 67 -108 l0 -72 35 0 35 0 0 78 c0 46 -6 88 -14 104 -13 24 -12
31 7 69 19 38 19 45 6 82 -22 62 -56 81 -149 85 l-79 4 -3 -103z m154 14 c39
-35 8 -83 -54 -83 l-38 0 0 50 0 50 37 0 c20 0 45 -7 55 -17z"/>
<path d="M5080 1170 l0 -210 30 0 30 0 0 149 c0 83 4 152 8 155 4 3 19 -13 32
-35 14 -21 28 -39 32 -39 3 0 16 16 28 35 12 19 26 35 31 35 5 0 9 -66 9 -150
l0 -150 35 0 35 0 -2 208 -3 207 -37 3 c-34 3 -39 -1 -64 -37 -15 -23 -29 -41
-33 -41 -3 1 -18 19 -33 40 -24 34 -33 40 -63 40 l-35 0 0 -210z"/>
<path d="M639 823 c0 -10 -2 -26 -4 -35 -3 -15 4 -18 36 -18 38 0 39 1 39 35
0 33 -2 35 -35 35 -26 0 -35 -4 -36 -17z"/>
<path d="M5343 805 c-2 -34 -1 -35 36 -35 38 0 38 0 32 32 -6 27 -12 33 -36
35 -28 2 -30 0 -32 -32z"/>
</g>
</svg>
